<svg xmlns="http://www.w3.org/2000/svg" xmlns:xlink="http://www.w3.org/1999/xlink" version="1.0" x="0px" y="0px" viewBox="0 0 100 125" enable-background="new 0 0 100 100" xml:space="preserve"><g><path fill="#000000" d="M49.372,84.537H18.013c-1.11,0-2.013-0.903-2.013-2.013c0-0.244,0.041-0.479,0.117-0.678   c0.011-0.028,0.006-0.057,0.014-0.085c0.013-0.045,0.038-0.084,0.044-0.132c0.505-3.526,17.877-14.849,28.918-15.519   c0.058-0.004,0.106-0.03,0.161-0.043c0.067-0.016,0.135-0.023,0.195-0.052c0.058-0.026,0.104-0.068,0.155-0.104   c0.053-0.038,0.109-0.07,0.154-0.118c0.043-0.046,0.07-0.102,0.104-0.155c0.035-0.055,0.075-0.105,0.098-0.167   c0.024-0.061,0.027-0.128,0.039-0.193c0.01-0.057,0.033-0.107,0.033-0.167l-0.009-5.106c0-0.078-0.028-0.147-0.045-0.22   c-0.013-0.056-0.012-0.116-0.034-0.168c-0.023-0.056-0.066-0.098-0.099-0.147c-0.038-0.058-0.067-0.122-0.116-0.171   c-0.029-0.028-0.069-0.043-0.102-0.068c-0.069-0.054-0.135-0.111-0.216-0.146c-0.12-0.05-0.251-0.078-0.389-0.078   c-3.586,0-9.136-8.188-9.136-13.479c0-0.552-0.448-1-1-1c-0.002,0-0.005,0.001-0.007,0.001c-1.208-0.005-2.189-1.251-2.189-2.782   v-1.996c0-0.561,0.439-1,1-1h0.889c0.552,0,1-0.448,1-1c0-0.008-0.005-0.016-0.005-0.024v-6.515c0-0.012,0.007-0.021,0.007-0.034   c0-8.667,7.242-15.717,16.145-15.717c8.901,0,16.143,7.05,16.143,15.717v6.549c0,0.008-0.005,0.015-0.005,0.024   c0,0.552,0.447,1,1,1h0.891c0.561,0,1,0.439,1,1v1.999c0,0.003,0.002,0.006,0.002,0.01c-0.002,0.832-0.301,1.612-0.822,2.142   c-0.388,0.394-0.382,1.027,0.012,1.414c0.195,0.191,0.448,0.287,0.701,0.287c0.259,0,0.518-0.1,0.713-0.299   c0.901-0.917,1.397-2.179,1.397-3.554c0-0.005-0.003-0.009-0.003-0.015v-1.984c0-1.615-1.285-2.926-2.886-2.988v-5.589   c0,0,0-0.001,0-0.002c-0.004-9.766-8.141-17.71-18.143-17.71c-9.987,0-18.113,7.92-18.142,17.665   c-0.001,0.017-0.01,0.031-0.01,0.047v5.589c-1.6,0.063-2.884,1.374-2.884,2.988v1.999c0,0.001,0,0.002,0,0.003   c0.002,2.262,1.393,4.151,3.248,4.643c0.492,5.572,5.504,13.439,10.085,14.489l0.006,3.313   c-10.894,1.206-28.644,11.932-29.786,16.946C14.086,81.567,14,82.044,14,82.524c0,2.211,1.798,4.01,4.008,4.013   c0.001,0,0.001,0,0.002,0h31.362c0.552,0,1-0.447,1-1S49.924,84.537,49.372,84.537z"/><path fill="#000000" d="M68.236,49.743c-9.796,0-17.766,7.969-17.766,17.764c0,9.796,7.97,17.766,17.766,17.766   c9.795,0,17.764-7.97,17.764-17.766C86,57.712,78.031,49.743,68.236,49.743z M68.236,83.272c-8.693,0-15.766-7.072-15.766-15.766   c0-8.692,7.072-15.765,15.766-15.765C76.929,51.742,84,58.814,84,67.507C84,76.2,76.929,83.272,68.236,83.272z"/><path fill="#000000" d="M73.24,62.563l-7.765,7.764l-2.245-2.245c-0.391-0.391-1.023-0.391-1.414,0s-0.391,1.023,0,1.414   l2.952,2.952c0.195,0.195,0.451,0.293,0.707,0.293s0.512-0.098,0.707-0.293l8.472-8.471c0.391-0.391,0.391-1.023,0-1.414   S73.631,62.172,73.24,62.563z"/></g></svg>